<mxfile host="app.diagrams.net" modified="2024-02-09T19:12:07.507Z" agent="Mozilla/5.0 (Windows NT 10.0; Win64; x64) AppleWebKit/537.36 (KHTML, like Gecko) Chrome/121.0.0.0 Safari/537.36" etag="s1Kt29AxhJYCtAG4NktZ" version="23.1.2" type="device" pages="2">
  <diagram name="Página-1" id="P4cE0nTU-3RuOBU0qnMc">
    <mxGraphModel dx="1947" dy="460" grid="1" gridSize="10" guides="1" tooltips="1" connect="1" arrows="1" fold="1" page="1" pageScale="1" pageWidth="827" pageHeight="1169" math="0" shadow="0">
      <root>
        <mxCell id="0" />
        <mxCell id="1" parent="0" />
        <mxCell id="S9v37dU_bKj5FC4RKSvF-9" value="Documentos" style="whiteSpace=wrap;html=1;align=center;" parent="1" vertex="1">
          <mxGeometry x="190" y="410" width="100" height="40" as="geometry" />
        </mxCell>
        <mxCell id="S9v37dU_bKj5FC4RKSvF-10" value="Videos" style="whiteSpace=wrap;html=1;align=center;" parent="1" vertex="1">
          <mxGeometry x="420" y="445" width="100" height="40" as="geometry" />
        </mxCell>
        <mxCell id="S9v37dU_bKj5FC4RKSvF-23" style="rounded=0;orthogonalLoop=1;jettySize=auto;html=1;exitX=0;exitY=1;exitDx=0;exitDy=0;entryX=1;entryY=0.5;entryDx=0;entryDy=0;endArrow=none;endFill=0;" parent="1" source="S9v37dU_bKj5FC4RKSvF-12" target="S9v37dU_bKj5FC4RKSvF-19" edge="1">
          <mxGeometry relative="1" as="geometry" />
        </mxCell>
        <mxCell id="S9v37dU_bKj5FC4RKSvF-24" style="rounded=0;orthogonalLoop=1;jettySize=auto;html=1;exitX=0.25;exitY=1;exitDx=0;exitDy=0;entryX=1;entryY=0.5;entryDx=0;entryDy=0;endArrow=none;endFill=0;" parent="1" source="S9v37dU_bKj5FC4RKSvF-12" target="S9v37dU_bKj5FC4RKSvF-21" edge="1">
          <mxGeometry relative="1" as="geometry" />
        </mxCell>
        <mxCell id="S9v37dU_bKj5FC4RKSvF-39" style="edgeStyle=elbowEdgeStyle;rounded=0;orthogonalLoop=1;jettySize=auto;html=1;exitX=0.5;exitY=1;exitDx=0;exitDy=0;entryX=0;entryY=0.5;entryDx=0;entryDy=0;elbow=vertical;endArrow=none;endFill=0;startArrow=ERmandOne;startFill=0;" parent="1" source="S9v37dU_bKj5FC4RKSvF-12" target="S9v37dU_bKj5FC4RKSvF-37" edge="1">
          <mxGeometry relative="1" as="geometry" />
        </mxCell>
        <mxCell id="S9v37dU_bKj5FC4RKSvF-41" style="edgeStyle=orthogonalEdgeStyle;rounded=0;orthogonalLoop=1;jettySize=auto;html=1;exitX=0.75;exitY=1;exitDx=0;exitDy=0;startArrow=ERmandOne;startFill=0;endArrow=none;endFill=0;" parent="1" source="S9v37dU_bKj5FC4RKSvF-12" target="S9v37dU_bKj5FC4RKSvF-38" edge="1">
          <mxGeometry relative="1" as="geometry" />
        </mxCell>
        <mxCell id="S9v37dU_bKj5FC4RKSvF-48" style="edgeStyle=orthogonalEdgeStyle;rounded=0;orthogonalLoop=1;jettySize=auto;html=1;exitX=1;exitY=0.25;exitDx=0;exitDy=0;entryX=0.5;entryY=1;entryDx=0;entryDy=0;endArrow=none;endFill=0;startArrow=ERmandOne;startFill=0;" parent="1" source="S9v37dU_bKj5FC4RKSvF-12" target="S9v37dU_bKj5FC4RKSvF-47" edge="1">
          <mxGeometry relative="1" as="geometry">
            <Array as="points">
              <mxPoint x="340" y="150" />
            </Array>
          </mxGeometry>
        </mxCell>
        <mxCell id="S9v37dU_bKj5FC4RKSvF-12" value="Usuario" style="whiteSpace=wrap;html=1;align=center;" parent="1" vertex="1">
          <mxGeometry x="130" y="140" width="100" height="40" as="geometry" />
        </mxCell>
        <mxCell id="S9v37dU_bKj5FC4RKSvF-28" style="edgeStyle=orthogonalEdgeStyle;rounded=0;orthogonalLoop=1;jettySize=auto;html=1;exitX=0.5;exitY=0;exitDx=0;exitDy=0;endArrow=none;endFill=0;entryX=0.75;entryY=1;entryDx=0;entryDy=0;" parent="1" source="S9v37dU_bKj5FC4RKSvF-13" target="S9v37dU_bKj5FC4RKSvF-9" edge="1">
          <mxGeometry relative="1" as="geometry">
            <Array as="points">
              <mxPoint x="265" y="545" />
            </Array>
          </mxGeometry>
        </mxCell>
        <mxCell id="S9v37dU_bKj5FC4RKSvF-13" value="ID documento" style="ellipse;whiteSpace=wrap;html=1;align=center;fontStyle=4;" parent="1" vertex="1">
          <mxGeometry x="220" y="545" width="100" height="40" as="geometry" />
        </mxCell>
        <mxCell id="S9v37dU_bKj5FC4RKSvF-26" style="edgeStyle=orthogonalEdgeStyle;rounded=0;orthogonalLoop=1;jettySize=auto;html=1;exitX=0.5;exitY=0;exitDx=0;exitDy=0;entryX=0.197;entryY=0.995;entryDx=0;entryDy=0;endArrow=none;endFill=0;entryPerimeter=0;" parent="1" source="S9v37dU_bKj5FC4RKSvF-14" target="S9v37dU_bKj5FC4RKSvF-10" edge="1">
          <mxGeometry relative="1" as="geometry" />
        </mxCell>
        <mxCell id="S9v37dU_bKj5FC4RKSvF-14" value="ID video" style="ellipse;whiteSpace=wrap;html=1;align=center;fontStyle=4;" parent="1" vertex="1">
          <mxGeometry x="390" y="560" width="100" height="40" as="geometry" />
        </mxCell>
        <mxCell id="S9v37dU_bKj5FC4RKSvF-17" style="rounded=0;orthogonalLoop=1;jettySize=auto;html=1;exitX=0.5;exitY=1;exitDx=0;exitDy=0;endArrow=none;endFill=0;" parent="1" source="S9v37dU_bKj5FC4RKSvF-16" target="S9v37dU_bKj5FC4RKSvF-12" edge="1">
          <mxGeometry relative="1" as="geometry" />
        </mxCell>
        <mxCell id="S9v37dU_bKj5FC4RKSvF-16" value="ID Usuario" style="ellipse;whiteSpace=wrap;html=1;align=center;fontStyle=4;" parent="1" vertex="1">
          <mxGeometry x="90" width="100" height="40" as="geometry" />
        </mxCell>
        <mxCell id="S9v37dU_bKj5FC4RKSvF-27" style="edgeStyle=orthogonalEdgeStyle;rounded=0;orthogonalLoop=1;jettySize=auto;html=1;exitX=0;exitY=0.5;exitDx=0;exitDy=0;entryX=1;entryY=0.5;entryDx=0;entryDy=0;endArrow=none;endFill=0;" parent="1" source="S9v37dU_bKj5FC4RKSvF-18" target="S9v37dU_bKj5FC4RKSvF-10" edge="1">
          <mxGeometry relative="1" as="geometry" />
        </mxCell>
        <mxCell id="S9v37dU_bKj5FC4RKSvF-18" value="Url" style="ellipse;whiteSpace=wrap;html=1;align=center;" parent="1" vertex="1">
          <mxGeometry x="566" y="445" width="100" height="40" as="geometry" />
        </mxCell>
        <mxCell id="S9v37dU_bKj5FC4RKSvF-19" value="Contraseña" style="ellipse;whiteSpace=wrap;html=1;align=center;" parent="1" vertex="1">
          <mxGeometry x="-120" y="210" width="100" height="40" as="geometry" />
        </mxCell>
        <mxCell id="S9v37dU_bKj5FC4RKSvF-21" value="Expiración" style="ellipse;whiteSpace=wrap;html=1;align=center;" parent="1" vertex="1">
          <mxGeometry x="50" y="280" width="100" height="40" as="geometry" />
        </mxCell>
        <mxCell id="S9v37dU_bKj5FC4RKSvF-31" value="Nombre" style="ellipse;whiteSpace=wrap;html=1;align=center;" parent="1" vertex="1">
          <mxGeometry x="-320" y="340" width="100" height="40" as="geometry" />
        </mxCell>
        <mxCell id="S9v37dU_bKj5FC4RKSvF-34" style="rounded=0;orthogonalLoop=1;jettySize=auto;html=1;exitX=1;exitY=0;exitDx=0;exitDy=0;entryX=0;entryY=1;entryDx=0;entryDy=0;endArrow=none;endFill=0;" parent="1" source="S9v37dU_bKj5FC4RKSvF-33" target="S9v37dU_bKj5FC4RKSvF-9" edge="1">
          <mxGeometry relative="1" as="geometry" />
        </mxCell>
        <mxCell id="S9v37dU_bKj5FC4RKSvF-33" value="Ruta" style="ellipse;whiteSpace=wrap;html=1;align=center;" parent="1" vertex="1">
          <mxGeometry x="30" y="480" width="100" height="40" as="geometry" />
        </mxCell>
        <mxCell id="S9v37dU_bKj5FC4RKSvF-40" style="edgeStyle=elbowEdgeStyle;rounded=0;orthogonalLoop=1;jettySize=auto;html=1;exitX=0.5;exitY=1;exitDx=0;exitDy=0;entryX=0.5;entryY=0;entryDx=0;entryDy=0;elbow=vertical;endArrow=ERzeroToMany;endFill=0;" parent="1" source="S9v37dU_bKj5FC4RKSvF-37" target="S9v37dU_bKj5FC4RKSvF-9" edge="1">
          <mxGeometry relative="1" as="geometry" />
        </mxCell>
        <mxCell id="S9v37dU_bKj5FC4RKSvF-37" value="Sube" style="shape=rhombus;perimeter=rhombusPerimeter;whiteSpace=wrap;html=1;align=center;" parent="1" vertex="1">
          <mxGeometry x="180" y="250" width="120" height="60" as="geometry" />
        </mxCell>
        <mxCell id="S9v37dU_bKj5FC4RKSvF-42" style="edgeStyle=orthogonalEdgeStyle;rounded=0;orthogonalLoop=1;jettySize=auto;html=1;exitX=0.5;exitY=1;exitDx=0;exitDy=0;entryX=0;entryY=0.5;entryDx=0;entryDy=0;elbow=vertical;endArrow=ERzeroToMany;endFill=0;" parent="1" source="S9v37dU_bKj5FC4RKSvF-38" target="S9v37dU_bKj5FC4RKSvF-10" edge="1">
          <mxGeometry relative="1" as="geometry" />
        </mxCell>
        <mxCell id="S9v37dU_bKj5FC4RKSvF-38" value="Sube" style="shape=rhombus;perimeter=rhombusPerimeter;whiteSpace=wrap;html=1;align=center;" parent="1" vertex="1">
          <mxGeometry x="340" y="250" width="120" height="60" as="geometry" />
        </mxCell>
        <mxCell id="S9v37dU_bKj5FC4RKSvF-47" value="Registra" style="shape=rhombus;perimeter=rhombusPerimeter;whiteSpace=wrap;html=1;align=center;" parent="1" vertex="1">
          <mxGeometry x="280" y="70" width="120" height="60" as="geometry" />
        </mxCell>
        <mxCell id="S9v37dU_bKj5FC4RKSvF-49" style="edgeStyle=orthogonalEdgeStyle;rounded=0;orthogonalLoop=1;jettySize=auto;html=1;exitX=0.5;exitY=0;exitDx=0;exitDy=0;entryX=1;entryY=0;entryDx=0;entryDy=0;endArrow=ERzeroToMany;endFill=0;" parent="1" source="S9v37dU_bKj5FC4RKSvF-47" target="S9v37dU_bKj5FC4RKSvF-12" edge="1">
          <mxGeometry relative="1" as="geometry">
            <Array as="points">
              <mxPoint x="340" y="50" />
              <mxPoint x="270" y="50" />
              <mxPoint x="270" y="140" />
            </Array>
          </mxGeometry>
        </mxCell>
        <mxCell id="S9v37dU_bKj5FC4RKSvF-52" style="rounded=0;orthogonalLoop=1;jettySize=auto;html=1;exitX=0;exitY=0;exitDx=0;exitDy=0;entryX=1;entryY=1;entryDx=0;entryDy=0;endArrow=none;endFill=0;" parent="1" source="S9v37dU_bKj5FC4RKSvF-50" target="S9v37dU_bKj5FC4RKSvF-10" edge="1">
          <mxGeometry relative="1" as="geometry" />
        </mxCell>
        <mxCell id="S9v37dU_bKj5FC4RKSvF-50" value="Permisos" style="ellipse;whiteSpace=wrap;html=1;align=center;" parent="1" vertex="1">
          <mxGeometry x="590" y="495" width="100" height="40" as="geometry" />
        </mxCell>
        <mxCell id="S9v37dU_bKj5FC4RKSvF-53" style="rounded=0;orthogonalLoop=1;jettySize=auto;html=1;exitX=0.5;exitY=0;exitDx=0;exitDy=0;entryX=0.25;entryY=1;entryDx=0;entryDy=0;endArrow=none;endFill=0;" parent="1" source="S9v37dU_bKj5FC4RKSvF-51" target="S9v37dU_bKj5FC4RKSvF-9" edge="1">
          <mxGeometry relative="1" as="geometry" />
        </mxCell>
        <mxCell id="S9v37dU_bKj5FC4RKSvF-51" value="Permisos" style="ellipse;whiteSpace=wrap;html=1;align=center;" parent="1" vertex="1">
          <mxGeometry x="60" y="535" width="100" height="40" as="geometry" />
        </mxCell>
        <mxCell id="S9v37dU_bKj5FC4RKSvF-55" style="rounded=0;orthogonalLoop=1;jettySize=auto;html=1;entryX=0.25;entryY=0;entryDx=0;entryDy=0;endArrow=none;endFill=0;exitX=1;exitY=1;exitDx=0;exitDy=0;" parent="1" source="S9v37dU_bKj5FC4RKSvF-81" target="S9v37dU_bKj5FC4RKSvF-12" edge="1">
          <mxGeometry relative="1" as="geometry">
            <mxPoint x="100" y="80" as="sourcePoint" />
          </mxGeometry>
        </mxCell>
        <mxCell id="S9v37dU_bKj5FC4RKSvF-54" value="Nombre" style="ellipse;whiteSpace=wrap;html=1;align=center;" parent="1" vertex="1">
          <mxGeometry x="-330" y="60" width="100" height="40" as="geometry" />
        </mxCell>
        <mxCell id="S9v37dU_bKj5FC4RKSvF-58" style="edgeStyle=orthogonalEdgeStyle;rounded=0;orthogonalLoop=1;jettySize=auto;html=1;exitX=0;exitY=0.5;exitDx=0;exitDy=0;entryX=1;entryY=0.75;entryDx=0;entryDy=0;endArrow=ERmandOne;endFill=0;" parent="1" source="S9v37dU_bKj5FC4RKSvF-56" target="S9v37dU_bKj5FC4RKSvF-12" edge="1">
          <mxGeometry relative="1" as="geometry" />
        </mxCell>
        <mxCell id="S9v37dU_bKj5FC4RKSvF-59" style="edgeStyle=orthogonalEdgeStyle;rounded=0;orthogonalLoop=1;jettySize=auto;html=1;exitX=1;exitY=0.5;exitDx=0;exitDy=0;entryX=0;entryY=0.5;entryDx=0;entryDy=0;endArrow=ERzeroToMany;endFill=0;" parent="1" source="S9v37dU_bKj5FC4RKSvF-56" target="S9v37dU_bKj5FC4RKSvF-57" edge="1">
          <mxGeometry relative="1" as="geometry" />
        </mxCell>
        <mxCell id="S9v37dU_bKj5FC4RKSvF-56" value="Hace" style="shape=rhombus;perimeter=rhombusPerimeter;whiteSpace=wrap;html=1;align=center;" parent="1" vertex="1">
          <mxGeometry x="430" y="150" width="120" height="60" as="geometry" />
        </mxCell>
        <mxCell id="S9v37dU_bKj5FC4RKSvF-62" style="edgeStyle=orthogonalEdgeStyle;rounded=0;orthogonalLoop=1;jettySize=auto;html=1;exitX=0.25;exitY=1;exitDx=0;exitDy=0;entryX=0.5;entryY=0;entryDx=0;entryDy=0;startArrow=ERzeroToMany;startFill=0;endArrow=none;endFill=0;" parent="1" source="S9v37dU_bKj5FC4RKSvF-57" target="S9v37dU_bKj5FC4RKSvF-60" edge="1">
          <mxGeometry relative="1" as="geometry" />
        </mxCell>
        <mxCell id="S9v37dU_bKj5FC4RKSvF-63" style="edgeStyle=orthogonalEdgeStyle;rounded=0;orthogonalLoop=1;jettySize=auto;html=1;exitX=0.75;exitY=1;exitDx=0;exitDy=0;entryX=0.5;entryY=0;entryDx=0;entryDy=0;endArrow=none;endFill=0;startArrow=ERzeroToMany;startFill=0;" parent="1" source="S9v37dU_bKj5FC4RKSvF-57" target="S9v37dU_bKj5FC4RKSvF-61" edge="1">
          <mxGeometry relative="1" as="geometry" />
        </mxCell>
        <mxCell id="S9v37dU_bKj5FC4RKSvF-57" value="Actividad" style="whiteSpace=wrap;html=1;align=center;" parent="1" vertex="1">
          <mxGeometry x="610" y="210" width="100" height="40" as="geometry" />
        </mxCell>
        <mxCell id="S9v37dU_bKj5FC4RKSvF-64" style="edgeStyle=orthogonalEdgeStyle;rounded=0;orthogonalLoop=1;jettySize=auto;html=1;exitX=0.5;exitY=1;exitDx=0;exitDy=0;entryX=0.5;entryY=0;entryDx=0;entryDy=0;startArrow=none;startFill=0;endArrow=ERzeroToOne;endFill=0;" parent="1" source="S9v37dU_bKj5FC4RKSvF-60" target="S9v37dU_bKj5FC4RKSvF-10" edge="1">
          <mxGeometry relative="1" as="geometry" />
        </mxCell>
        <mxCell id="S9v37dU_bKj5FC4RKSvF-60" value="Accede" style="shape=rhombus;perimeter=rhombusPerimeter;whiteSpace=wrap;html=1;align=center;" parent="1" vertex="1">
          <mxGeometry x="590" y="290" width="120" height="60" as="geometry" />
        </mxCell>
        <mxCell id="S9v37dU_bKj5FC4RKSvF-65" style="edgeStyle=orthogonalEdgeStyle;rounded=0;orthogonalLoop=1;jettySize=auto;html=1;exitX=0.5;exitY=1;exitDx=0;exitDy=0;entryX=1;entryY=0.5;entryDx=0;entryDy=0;endArrow=ERzeroToOne;endFill=0;" parent="1" source="S9v37dU_bKj5FC4RKSvF-61" target="S9v37dU_bKj5FC4RKSvF-9" edge="1">
          <mxGeometry relative="1" as="geometry">
            <Array as="points">
              <mxPoint x="800" y="660" />
              <mxPoint x="350" y="660" />
              <mxPoint x="350" y="430" />
            </Array>
          </mxGeometry>
        </mxCell>
        <mxCell id="S9v37dU_bKj5FC4RKSvF-61" value="Accede" style="shape=rhombus;perimeter=rhombusPerimeter;whiteSpace=wrap;html=1;align=center;" parent="1" vertex="1">
          <mxGeometry x="740" y="290" width="120" height="60" as="geometry" />
        </mxCell>
        <mxCell id="S9v37dU_bKj5FC4RKSvF-71" style="edgeStyle=orthogonalEdgeStyle;rounded=0;orthogonalLoop=1;jettySize=auto;html=1;exitX=0.5;exitY=1;exitDx=0;exitDy=0;entryX=0.75;entryY=0;entryDx=0;entryDy=0;endArrow=none;endFill=0;" parent="1" source="S9v37dU_bKj5FC4RKSvF-66" target="S9v37dU_bKj5FC4RKSvF-57" edge="1">
          <mxGeometry relative="1" as="geometry" />
        </mxCell>
        <mxCell id="S9v37dU_bKj5FC4RKSvF-66" value="Hora" style="ellipse;whiteSpace=wrap;html=1;align=center;" parent="1" vertex="1">
          <mxGeometry x="700" y="110" width="100" height="40" as="geometry" />
        </mxCell>
        <mxCell id="S9v37dU_bKj5FC4RKSvF-73" style="edgeStyle=orthogonalEdgeStyle;rounded=0;orthogonalLoop=1;jettySize=auto;html=1;exitX=0;exitY=0.5;exitDx=0;exitDy=0;entryX=1;entryY=0.5;entryDx=0;entryDy=0;endArrow=none;endFill=0;" parent="1" source="S9v37dU_bKj5FC4RKSvF-67" target="S9v37dU_bKj5FC4RKSvF-57" edge="1">
          <mxGeometry relative="1" as="geometry" />
        </mxCell>
        <mxCell id="S9v37dU_bKj5FC4RKSvF-67" value="Tipo de Actividad" style="ellipse;whiteSpace=wrap;html=1;align=center;" parent="1" vertex="1">
          <mxGeometry x="830" y="210" width="100" height="40" as="geometry" />
        </mxCell>
        <mxCell id="S9v37dU_bKj5FC4RKSvF-72" style="rounded=0;orthogonalLoop=1;jettySize=auto;html=1;exitX=0;exitY=0.5;exitDx=0;exitDy=0;entryX=1;entryY=0.25;entryDx=0;entryDy=0;endArrow=none;endFill=0;" parent="1" source="S9v37dU_bKj5FC4RKSvF-68" target="S9v37dU_bKj5FC4RKSvF-57" edge="1">
          <mxGeometry relative="1" as="geometry" />
        </mxCell>
        <mxCell id="S9v37dU_bKj5FC4RKSvF-68" value="Fecha" style="ellipse;whiteSpace=wrap;html=1;align=center;" parent="1" vertex="1">
          <mxGeometry x="820" y="140" width="100" height="40" as="geometry" />
        </mxCell>
        <mxCell id="S9v37dU_bKj5FC4RKSvF-70" style="edgeStyle=orthogonalEdgeStyle;rounded=0;orthogonalLoop=1;jettySize=auto;html=1;exitX=0.5;exitY=1;exitDx=0;exitDy=0;entryX=0.25;entryY=0;entryDx=0;entryDy=0;endArrow=none;endFill=0;" parent="1" source="S9v37dU_bKj5FC4RKSvF-69" target="S9v37dU_bKj5FC4RKSvF-57" edge="1">
          <mxGeometry relative="1" as="geometry" />
        </mxCell>
        <mxCell id="S9v37dU_bKj5FC4RKSvF-69" value="ID Actividad" style="ellipse;whiteSpace=wrap;html=1;align=center;fontStyle=4;" parent="1" vertex="1">
          <mxGeometry x="580" y="100" width="100" height="40" as="geometry" />
        </mxCell>
        <mxCell id="S9v37dU_bKj5FC4RKSvF-78" style="rounded=0;orthogonalLoop=1;jettySize=auto;html=1;exitX=0.5;exitY=0;exitDx=0;exitDy=0;endArrow=none;endFill=0;" parent="1" source="S9v37dU_bKj5FC4RKSvF-75" target="S9v37dU_bKj5FC4RKSvF-10" edge="1">
          <mxGeometry relative="1" as="geometry" />
        </mxCell>
        <mxCell id="S9v37dU_bKj5FC4RKSvF-75" value="Nombre" style="ellipse;whiteSpace=wrap;html=1;align=center;" parent="1" vertex="1">
          <mxGeometry x="490" y="585" width="100" height="40" as="geometry" />
        </mxCell>
        <mxCell id="S9v37dU_bKj5FC4RKSvF-77" style="rounded=0;orthogonalLoop=1;jettySize=auto;html=1;exitX=0;exitY=0.5;exitDx=0;exitDy=0;entryX=0.75;entryY=1;entryDx=0;entryDy=0;endArrow=none;endFill=0;" parent="1" source="S9v37dU_bKj5FC4RKSvF-76" target="S9v37dU_bKj5FC4RKSvF-10" edge="1">
          <mxGeometry relative="1" as="geometry" />
        </mxCell>
        <mxCell id="S9v37dU_bKj5FC4RKSvF-76" value="Descripcion" style="ellipse;whiteSpace=wrap;html=1;align=center;" parent="1" vertex="1">
          <mxGeometry x="590" y="550" width="100" height="40" as="geometry" />
        </mxCell>
        <mxCell id="S9v37dU_bKj5FC4RKSvF-80" style="rounded=0;orthogonalLoop=1;jettySize=auto;html=1;exitX=0.5;exitY=0;exitDx=0;exitDy=0;entryX=0.5;entryY=1;entryDx=0;entryDy=0;endArrow=none;endFill=0;" parent="1" source="S9v37dU_bKj5FC4RKSvF-79" target="S9v37dU_bKj5FC4RKSvF-9" edge="1">
          <mxGeometry relative="1" as="geometry" />
        </mxCell>
        <mxCell id="S9v37dU_bKj5FC4RKSvF-79" value="Nombre" style="ellipse;whiteSpace=wrap;html=1;align=center;" parent="1" vertex="1">
          <mxGeometry x="120" y="590" width="100" height="40" as="geometry" />
        </mxCell>
        <mxCell id="S9v37dU_bKj5FC4RKSvF-81" value="Nombre" style="ellipse;whiteSpace=wrap;html=1;align=center;" parent="1" vertex="1">
          <mxGeometry x="-20" y="10" width="100" height="40" as="geometry" />
        </mxCell>
        <mxCell id="S9v37dU_bKj5FC4RKSvF-84" style="rounded=0;orthogonalLoop=1;jettySize=auto;html=1;exitX=1;exitY=0.5;exitDx=0;exitDy=0;entryX=0;entryY=0;entryDx=0;entryDy=0;endArrow=none;endFill=0;" parent="1" source="S9v37dU_bKj5FC4RKSvF-82" target="S9v37dU_bKj5FC4RKSvF-12" edge="1">
          <mxGeometry relative="1" as="geometry" />
        </mxCell>
        <mxCell id="S9v37dU_bKj5FC4RKSvF-82" value="Apellido" style="ellipse;whiteSpace=wrap;html=1;align=center;" parent="1" vertex="1">
          <mxGeometry x="-100" y="50" width="100" height="40" as="geometry" />
        </mxCell>
        <mxCell id="S9v37dU_bKj5FC4RKSvF-86" style="rounded=0;orthogonalLoop=1;jettySize=auto;html=1;exitX=1;exitY=0;exitDx=0;exitDy=0;entryX=0.126;entryY=1.002;entryDx=0;entryDy=0;endArrow=none;endFill=0;entryPerimeter=0;" parent="1" source="S9v37dU_bKj5FC4RKSvF-85" target="S9v37dU_bKj5FC4RKSvF-12" edge="1">
          <mxGeometry relative="1" as="geometry" />
        </mxCell>
        <mxCell id="S9v37dU_bKj5FC4RKSvF-85" value="FechaCreacion" style="ellipse;whiteSpace=wrap;html=1;align=center;" parent="1" vertex="1">
          <mxGeometry x="-50" y="260" width="100" height="40" as="geometry" />
        </mxCell>
        <mxCell id="S9v37dU_bKj5FC4RKSvF-88" style="rounded=0;orthogonalLoop=1;jettySize=auto;html=1;exitX=0;exitY=1;exitDx=0;exitDy=0;entryX=0.75;entryY=0;entryDx=0;entryDy=0;endArrow=none;endFill=0;" parent="1" source="S9v37dU_bKj5FC4RKSvF-87" target="S9v37dU_bKj5FC4RKSvF-12" edge="1">
          <mxGeometry relative="1" as="geometry" />
        </mxCell>
        <mxCell id="S9v37dU_bKj5FC4RKSvF-87" value="Activo" style="ellipse;whiteSpace=wrap;html=1;align=center;" parent="1" vertex="1">
          <mxGeometry x="200" width="100" height="40" as="geometry" />
        </mxCell>
        <mxCell id="S9v37dU_bKj5FC4RKSvF-95" style="edgeStyle=orthogonalEdgeStyle;rounded=0;orthogonalLoop=1;jettySize=auto;html=1;exitX=0.5;exitY=0;exitDx=0;exitDy=0;endArrow=none;endFill=0;" parent="1" source="S9v37dU_bKj5FC4RKSvF-89" target="S9v37dU_bKj5FC4RKSvF-54" edge="1">
          <mxGeometry relative="1" as="geometry" />
        </mxCell>
        <mxCell id="S9v37dU_bKj5FC4RKSvF-96" style="edgeStyle=orthogonalEdgeStyle;rounded=0;orthogonalLoop=1;jettySize=auto;html=1;exitX=0;exitY=0.5;exitDx=0;exitDy=0;entryX=1;entryY=0.5;entryDx=0;entryDy=0;endArrow=none;endFill=0;" parent="1" source="S9v37dU_bKj5FC4RKSvF-89" target="S9v37dU_bKj5FC4RKSvF-90" edge="1">
          <mxGeometry relative="1" as="geometry" />
        </mxCell>
        <mxCell id="S9v37dU_bKj5FC4RKSvF-89" value="Rol" style="whiteSpace=wrap;html=1;align=center;" parent="1" vertex="1">
          <mxGeometry x="-330" y="140" width="100" height="40" as="geometry" />
        </mxCell>
        <mxCell id="S9v37dU_bKj5FC4RKSvF-90" value="Id Rol" style="ellipse;whiteSpace=wrap;html=1;align=center;fontStyle=4;" parent="1" vertex="1">
          <mxGeometry x="-464" y="140" width="100" height="40" as="geometry" />
        </mxCell>
        <mxCell id="S9v37dU_bKj5FC4RKSvF-91" value="Id Categoria" style="ellipse;whiteSpace=wrap;html=1;align=center;fontStyle=4;" parent="1" vertex="1">
          <mxGeometry x="-450" y="410" width="100" height="40" as="geometry" />
        </mxCell>
        <mxCell id="S9v37dU_bKj5FC4RKSvF-93" style="edgeStyle=orthogonalEdgeStyle;rounded=0;orthogonalLoop=1;jettySize=auto;html=1;exitX=0.5;exitY=0;exitDx=0;exitDy=0;entryX=0.5;entryY=1;entryDx=0;entryDy=0;endArrow=none;endFill=0;" parent="1" source="S9v37dU_bKj5FC4RKSvF-92" target="S9v37dU_bKj5FC4RKSvF-31" edge="1">
          <mxGeometry relative="1" as="geometry" />
        </mxCell>
        <mxCell id="S9v37dU_bKj5FC4RKSvF-94" style="edgeStyle=orthogonalEdgeStyle;rounded=0;orthogonalLoop=1;jettySize=auto;html=1;exitX=0;exitY=0.5;exitDx=0;exitDy=0;entryX=1;entryY=0.5;entryDx=0;entryDy=0;endArrow=none;endFill=0;" parent="1" source="S9v37dU_bKj5FC4RKSvF-92" target="S9v37dU_bKj5FC4RKSvF-91" edge="1">
          <mxGeometry relative="1" as="geometry" />
        </mxCell>
        <mxCell id="S9v37dU_bKj5FC4RKSvF-92" value="Categoria" style="whiteSpace=wrap;html=1;align=center;" parent="1" vertex="1">
          <mxGeometry x="-320" y="410" width="100" height="40" as="geometry" />
        </mxCell>
        <mxCell id="S9v37dU_bKj5FC4RKSvF-99" style="edgeStyle=orthogonalEdgeStyle;rounded=0;orthogonalLoop=1;jettySize=auto;html=1;exitX=1;exitY=0.5;exitDx=0;exitDy=0;entryX=0;entryY=0.5;entryDx=0;entryDy=0;endArrow=ERoneToMany;endFill=0;" parent="1" source="S9v37dU_bKj5FC4RKSvF-98" target="S9v37dU_bKj5FC4RKSvF-12" edge="1">
          <mxGeometry relative="1" as="geometry" />
        </mxCell>
        <mxCell id="S9v37dU_bKj5FC4RKSvF-100" style="edgeStyle=orthogonalEdgeStyle;rounded=0;orthogonalLoop=1;jettySize=auto;html=1;exitX=0;exitY=0.5;exitDx=0;exitDy=0;entryX=1;entryY=0.5;entryDx=0;entryDy=0;endArrow=ERmandOne;endFill=0;" parent="1" source="S9v37dU_bKj5FC4RKSvF-98" target="S9v37dU_bKj5FC4RKSvF-89" edge="1">
          <mxGeometry relative="1" as="geometry" />
        </mxCell>
        <mxCell id="S9v37dU_bKj5FC4RKSvF-98" value="Tiene" style="shape=rhombus;perimeter=rhombusPerimeter;whiteSpace=wrap;html=1;align=center;" parent="1" vertex="1">
          <mxGeometry x="-140" y="130" width="120" height="60" as="geometry" />
        </mxCell>
        <mxCell id="S9v37dU_bKj5FC4RKSvF-102" style="edgeStyle=orthogonalEdgeStyle;rounded=0;orthogonalLoop=1;jettySize=auto;html=1;exitX=1;exitY=0.5;exitDx=0;exitDy=0;entryX=0;entryY=0.5;entryDx=0;entryDy=0;endArrow=ERzeroToMany;endFill=0;" parent="1" source="S9v37dU_bKj5FC4RKSvF-101" target="S9v37dU_bKj5FC4RKSvF-9" edge="1">
          <mxGeometry relative="1" as="geometry" />
        </mxCell>
        <mxCell id="S9v37dU_bKj5FC4RKSvF-103" style="edgeStyle=orthogonalEdgeStyle;rounded=0;orthogonalLoop=1;jettySize=auto;html=1;exitX=0;exitY=0.5;exitDx=0;exitDy=0;endArrow=ERmandOne;endFill=0;" parent="1" source="S9v37dU_bKj5FC4RKSvF-101" target="S9v37dU_bKj5FC4RKSvF-92" edge="1">
          <mxGeometry relative="1" as="geometry" />
        </mxCell>
        <mxCell id="S9v37dU_bKj5FC4RKSvF-101" value="Tiene" style="shape=rhombus;perimeter=rhombusPerimeter;whiteSpace=wrap;html=1;align=center;" parent="1" vertex="1">
          <mxGeometry x="-120" y="400" width="120" height="60" as="geometry" />
        </mxCell>
      </root>
    </mxGraphModel>
  </diagram>
  <diagram id="wBYd80628RY4rWiQBYgT" name="Página-2">
    <mxGraphModel dx="1862" dy="541" grid="1" gridSize="10" guides="1" tooltips="1" connect="1" arrows="1" fold="1" page="1" pageScale="1" pageWidth="827" pageHeight="1169" math="0" shadow="0">
      <root>
        <mxCell id="0" />
        <mxCell id="1" parent="0" />
        <mxCell id="9o1z-Vj7M-WQ-iRqwLNp-1" value="Usuario" style="swimlane;childLayout=stackLayout;horizontal=1;startSize=50;horizontalStack=0;rounded=1;fontSize=14;fontStyle=0;strokeWidth=2;resizeParent=0;resizeLast=1;shadow=0;dashed=0;align=center;arcSize=4;whiteSpace=wrap;html=1;" parent="1" vertex="1">
          <mxGeometry x="80" y="70" width="160" height="190" as="geometry">
            <mxRectangle x="90" y="70" width="90" height="50" as="alternateBounds" />
          </mxGeometry>
        </mxCell>
        <mxCell id="9o1z-Vj7M-WQ-iRqwLNp-2" value="IdUsuario PK&lt;br&gt;Nombre&lt;br&gt;Apellido&lt;br&gt;Contraseña&lt;br&gt;FecCreacion&lt;br&gt;Expiracion&lt;br&gt;Creado FK&lt;br&gt;Rol&amp;nbsp;" style="align=left;strokeColor=none;fillColor=none;spacingLeft=4;fontSize=12;verticalAlign=top;resizable=0;rotatable=0;part=1;html=1;" parent="9o1z-Vj7M-WQ-iRqwLNp-1" vertex="1">
          <mxGeometry y="50" width="160" height="140" as="geometry" />
        </mxCell>
        <mxCell id="Fr-TFN5fyIOUZAO0wpTp-2" value="Documento" style="swimlane;childLayout=stackLayout;horizontal=1;startSize=50;horizontalStack=0;rounded=1;fontSize=14;fontStyle=0;strokeWidth=2;resizeParent=0;resizeLast=1;shadow=0;dashed=0;align=center;arcSize=4;whiteSpace=wrap;html=1;" parent="1" vertex="1">
          <mxGeometry x="130" y="300" width="160" height="180" as="geometry" />
        </mxCell>
        <mxCell id="Fr-TFN5fyIOUZAO0wpTp-3" value="IdDocumento PK&lt;br&gt;Nombre&lt;br&gt;Ruta&lt;br&gt;Permisos&lt;br&gt;Autor FK&lt;br&gt;Categoria&amp;nbsp;" style="align=left;strokeColor=none;fillColor=none;spacingLeft=4;fontSize=12;verticalAlign=top;resizable=0;rotatable=0;part=1;html=1;" parent="Fr-TFN5fyIOUZAO0wpTp-2" vertex="1">
          <mxGeometry y="50" width="160" height="130" as="geometry" />
        </mxCell>
        <mxCell id="Fr-TFN5fyIOUZAO0wpTp-4" value="" style="edgeStyle=entityRelationEdgeStyle;fontSize=12;html=1;endArrow=ERoneToMany;startArrow=ERmandOne;rounded=0;exitX=1.013;exitY=0.117;exitDx=0;exitDy=0;exitPerimeter=0;" parent="1" source="9o1z-Vj7M-WQ-iRqwLNp-2" edge="1">
          <mxGeometry width="100" height="100" relative="1" as="geometry">
            <mxPoint x="100" y="330" as="sourcePoint" />
            <mxPoint x="130" y="420" as="targetPoint" />
          </mxGeometry>
        </mxCell>
        <mxCell id="Fr-TFN5fyIOUZAO0wpTp-6" value="Video" style="swimlane;childLayout=stackLayout;horizontal=1;startSize=50;horizontalStack=0;rounded=1;fontSize=14;fontStyle=0;strokeWidth=2;resizeParent=0;resizeLast=1;shadow=0;dashed=0;align=center;arcSize=4;whiteSpace=wrap;html=1;" parent="1" vertex="1">
          <mxGeometry x="390" y="410" width="160" height="150" as="geometry" />
        </mxCell>
        <mxCell id="Fr-TFN5fyIOUZAO0wpTp-7" value="IdVideo PK&lt;br&gt;Nombre&lt;br&gt;Descripcion&lt;br&gt;Permisos&lt;br&gt;Url&lt;br&gt;Autor FK" style="align=left;strokeColor=none;fillColor=none;spacingLeft=4;fontSize=12;verticalAlign=top;resizable=0;rotatable=0;part=1;html=1;" parent="Fr-TFN5fyIOUZAO0wpTp-6" vertex="1">
          <mxGeometry y="50" width="160" height="100" as="geometry" />
        </mxCell>
        <mxCell id="Fr-TFN5fyIOUZAO0wpTp-8" value="" style="edgeStyle=orthogonalEdgeStyle;fontSize=12;html=1;endArrow=ERoneToMany;startArrow=ERmandOne;rounded=0;exitX=1.018;exitY=0.148;exitDx=0;exitDy=0;entryX=-0.002;entryY=0.872;entryDx=0;entryDy=0;entryPerimeter=0;exitPerimeter=0;" parent="1" source="9o1z-Vj7M-WQ-iRqwLNp-1" target="Fr-TFN5fyIOUZAO0wpTp-7" edge="1">
          <mxGeometry width="100" height="100" relative="1" as="geometry">
            <mxPoint x="390" y="310" as="sourcePoint" />
            <mxPoint x="490" y="210" as="targetPoint" />
            <Array as="points">
              <mxPoint x="410" y="98" />
              <mxPoint x="410" y="60" />
              <mxPoint x="700" y="60" />
              <mxPoint x="700" y="590" />
              <mxPoint x="360" y="590" />
              <mxPoint x="360" y="547" />
            </Array>
          </mxGeometry>
        </mxCell>
        <mxCell id="Fr-TFN5fyIOUZAO0wpTp-9" value="Actividad" style="swimlane;childLayout=stackLayout;horizontal=1;startSize=50;horizontalStack=0;rounded=1;fontSize=14;fontStyle=0;strokeWidth=2;resizeParent=0;resizeLast=1;shadow=0;dashed=0;align=center;arcSize=4;whiteSpace=wrap;html=1;" parent="1" vertex="1">
          <mxGeometry x="490" y="90" width="160" height="160" as="geometry" />
        </mxCell>
        <mxCell id="Fr-TFN5fyIOUZAO0wpTp-10" value="IdActividad PK&lt;br&gt;Hora&lt;br&gt;Fecha&lt;br&gt;TipoActividad&lt;br&gt;Usuario FK&lt;br&gt;Documento FK&lt;br&gt;Video FK" style="align=left;strokeColor=none;fillColor=none;spacingLeft=4;fontSize=12;verticalAlign=top;resizable=0;rotatable=0;part=1;html=1;" parent="Fr-TFN5fyIOUZAO0wpTp-9" vertex="1">
          <mxGeometry y="50" width="160" height="110" as="geometry" />
        </mxCell>
        <mxCell id="Fr-TFN5fyIOUZAO0wpTp-11" value="" style="edgeStyle=orthogonalEdgeStyle;fontSize=12;html=1;endArrow=ERoneToMany;startArrow=ERmandOne;rounded=0;exitX=1;exitY=0;exitDx=0;exitDy=0;entryX=0;entryY=0.75;entryDx=0;entryDy=0;" parent="1" source="9o1z-Vj7M-WQ-iRqwLNp-2" target="Fr-TFN5fyIOUZAO0wpTp-9" edge="1">
          <mxGeometry width="100" height="100" relative="1" as="geometry">
            <mxPoint x="320" y="190" as="sourcePoint" />
            <mxPoint x="485" y="240" as="targetPoint" />
            <Array as="points">
              <mxPoint x="370" y="120" />
              <mxPoint x="370" y="210" />
            </Array>
          </mxGeometry>
        </mxCell>
        <mxCell id="Fr-TFN5fyIOUZAO0wpTp-12" value="" style="edgeStyle=elbowEdgeStyle;fontSize=12;html=1;endArrow=ERzeroToMany;startArrow=ERzeroToOne;rounded=0;entryX=0;entryY=0.75;entryDx=0;entryDy=0;exitX=0.998;exitY=0.083;exitDx=0;exitDy=0;exitPerimeter=0;endFill=0;" parent="1" source="Fr-TFN5fyIOUZAO0wpTp-3" target="Fr-TFN5fyIOUZAO0wpTp-10" edge="1">
          <mxGeometry width="100" height="100" relative="1" as="geometry">
            <mxPoint x="320" y="360" as="sourcePoint" />
            <mxPoint x="420" y="260" as="targetPoint" />
            <Array as="points">
              <mxPoint x="330" y="290" />
            </Array>
          </mxGeometry>
        </mxCell>
        <mxCell id="39yHTrUUMIu9WTiojbH2-1" value="" style="edgeStyle=orthogonalEdgeStyle;fontSize=12;html=1;endArrow=ERzeroToMany;startArrow=ERzeroToOne;rounded=0;entryX=-0.017;entryY=0.895;entryDx=0;entryDy=0;exitX=-0.012;exitY=0.12;exitDx=0;exitDy=0;exitPerimeter=0;entryPerimeter=0;endFill=0;" parent="1" source="Fr-TFN5fyIOUZAO0wpTp-7" target="Fr-TFN5fyIOUZAO0wpTp-10" edge="1">
          <mxGeometry width="100" height="100" relative="1" as="geometry">
            <mxPoint x="300" y="371" as="sourcePoint" />
            <mxPoint x="500" y="233" as="targetPoint" />
            <Array as="points">
              <mxPoint x="350" y="472" />
              <mxPoint x="350" y="355" />
              <mxPoint x="410" y="355" />
              <mxPoint x="410" y="238" />
            </Array>
          </mxGeometry>
        </mxCell>
        <mxCell id="XkQVpKBR4JUeVZgdXcnU-1" value="" style="edgeStyle=orthogonalEdgeStyle;fontSize=12;html=1;endArrow=ERzeroToMany;startArrow=ERmandOne;rounded=0;exitX=0.25;exitY=0;exitDx=0;exitDy=0;entryX=0;entryY=0.75;entryDx=0;entryDy=0;" edge="1" parent="1" source="9o1z-Vj7M-WQ-iRqwLNp-1">
          <mxGeometry width="100" height="100" relative="1" as="geometry">
            <mxPoint x="120" y="60" as="sourcePoint" />
            <mxPoint x="80" y="202.5" as="targetPoint" />
            <Array as="points">
              <mxPoint x="120" y="50" />
              <mxPoint x="40" y="50" />
              <mxPoint x="40" y="203" />
            </Array>
          </mxGeometry>
        </mxCell>
        <mxCell id="XkQVpKBR4JUeVZgdXcnU-3" value="Correlativo" style="swimlane;childLayout=stackLayout;horizontal=1;startSize=50;horizontalStack=0;rounded=1;fontSize=14;fontStyle=0;strokeWidth=2;resizeParent=0;resizeLast=1;shadow=0;dashed=0;align=center;arcSize=4;whiteSpace=wrap;html=1;" vertex="1" parent="1">
          <mxGeometry x="120" y="525" width="160" height="120" as="geometry" />
        </mxCell>
        <mxCell id="XkQVpKBR4JUeVZgdXcnU-4" value="id PK" style="align=left;strokeColor=none;fillColor=none;spacingLeft=4;fontSize=12;verticalAlign=top;resizable=0;rotatable=0;part=1;html=1;" vertex="1" parent="XkQVpKBR4JUeVZgdXcnU-3">
          <mxGeometry y="50" width="160" height="70" as="geometry" />
        </mxCell>
        <mxCell id="XkQVpKBR4JUeVZgdXcnU-5" value="Documento&lt;br&gt;sinCodigo" style="swimlane;childLayout=stackLayout;horizontal=1;startSize=50;horizontalStack=0;rounded=1;fontSize=14;fontStyle=0;strokeWidth=2;resizeParent=0;resizeLast=1;shadow=0;dashed=0;align=center;arcSize=4;whiteSpace=wrap;html=1;" vertex="1" parent="1">
          <mxGeometry x="-110" y="350" width="160" height="150" as="geometry" />
        </mxCell>
        <mxCell id="XkQVpKBR4JUeVZgdXcnU-6" value="nombre&lt;br&gt;Ruta&lt;br&gt;Permisos&lt;br&gt;Autor FK&lt;br&gt;Categoria&lt;br&gt;ID PK FK" style="align=left;strokeColor=none;fillColor=none;spacingLeft=4;fontSize=12;verticalAlign=top;resizable=0;rotatable=0;part=1;html=1;" vertex="1" parent="XkQVpKBR4JUeVZgdXcnU-5">
          <mxGeometry y="50" width="160" height="100" as="geometry" />
        </mxCell>
        <mxCell id="XkQVpKBR4JUeVZgdXcnU-7" style="edgeStyle=orthogonalEdgeStyle;rounded=0;orthogonalLoop=1;jettySize=auto;html=1;exitX=0;exitY=0.75;exitDx=0;exitDy=0;entryX=0;entryY=0.5;entryDx=0;entryDy=0;endArrow=ERmandOne;endFill=0;startArrow=ERmandOne;startFill=0;" edge="1" parent="1" source="XkQVpKBR4JUeVZgdXcnU-6" target="XkQVpKBR4JUeVZgdXcnU-3">
          <mxGeometry relative="1" as="geometry" />
        </mxCell>
        <mxCell id="XkQVpKBR4JUeVZgdXcnU-8" style="edgeStyle=orthogonalEdgeStyle;rounded=0;orthogonalLoop=1;jettySize=auto;html=1;exitX=0;exitY=0.75;exitDx=0;exitDy=0;entryX=0.5;entryY=0;entryDx=0;entryDy=0;endArrow=ERzeroToMany;endFill=0;startArrow=ERmandOne;startFill=0;" edge="1" parent="1" source="9o1z-Vj7M-WQ-iRqwLNp-2" target="XkQVpKBR4JUeVZgdXcnU-5">
          <mxGeometry relative="1" as="geometry" />
        </mxCell>
      </root>
    </mxGraphModel>
  </diagram>
</mxfile>
